# xmcd
#
# Track frame offsets: 
#        150
#        16422
#        29087
#        44740
#        57157
#        69130
#        78952
#        92835
#        103887
#        114065
#        127175
#        137920
#
# Disc length: 2015 seconds
#
# Revision: 1
# Processed by: cddbd v1.5.2PL0 Copyright (c) Steve Scherf et al.
# Submitted via: ExactAudioCopy v0.99pb5
#
DISCID=a507dd0c
DTITLE=Billie Jo Spears - The Best Of Billie Jo Spears
DYEAR=1994
DGENRE=Country Pop
TTITLE0=Blanket on the ground
TTITLE1=Stay away from the apple tree
TTITLE2=Silver wings and golden rings
TTITLE3=What I've got in mind
TTITLE4=Misty Blue
TTITLE5=Never did like whiskey
TTITLE6=I'm not easy
TTITLE7=If you want me
TTITLE8=Too much is not enough
TTITLE9=Love ain't gonna wait for us
TTITLE10=Your good girl's gonna go bad
TTITLE11=What the world needs now is love
EXTD=
EXTT0=
EXTT1=
EXTT2=
EXTT3=
EXTT4=
EXTT5=
EXTT6=
EXTT7=
EXTT8=
EXTT9=
EXTT10=
EXTT11=
PLAYORDER=
